# xmcd CD database file
#
# Track frame offsets:
#	151
#	25486
#	48282
#	75732
#	92380
#	114964
#	136253
#	155909
#	177016
#	205118
#
# Disc length: 3047 seconds
#
# Revision: 1
# Processed by: cddbd v1.4PL0 Copyright (c) Steve Scherf et al.
# Submitted via: CDex 1.50beta8
#
DISCID=760be50a
DTITLE=Jazzorange - Clandestin
DYEAR=1999
DGENRE=Jazz
TTITLE0=Soledad
TTITLE1=Vers un nouveau monde
TTITLE2=Clara
TTITLE3=Clandestin
TTITLE4=Gibraltar
TTITLE5=Hispano
TTITLE6=Embarquement immédiat
TTITLE7=Confusion
TTITLE8=06h15
TTITLE9=Chinook
EXTD=YEAR: 1999
EXTT0=
EXTT1=
EXTT2=
EXTT3=
EXTT4=
EXTT5=
EXTT6=
EXTT7=
EXTT8=
EXTT9=
PLAYORDER=
